<svg width="64" height="63" viewBox="0 0 64 63" fill="none" xmlns="http://www.w3.org/2000/svg">
<rect x="0.529297" y="0.0981445" width="62.8033" height="62.8033" rx="20" fill="#1D1D1D"/>
<path d="M40.6113 21.2974C44.1113 23.7299 46.5263 27.5974 47.0163 32.0599" stroke="white" stroke-width="2.625" stroke-linecap="round" stroke-linejoin="round"/>
<path d="M17.0386 32.1473C17.4936 27.7023 19.8736 23.8348 23.3386 21.3848" stroke="white" stroke-width="2.625" stroke-linecap="round" stroke-linejoin="round"/>
<path d="M25.2637 47.145C27.2937 48.1775 29.6037 48.755 32.0362 48.755C34.3812 48.755 36.5862 48.23 38.5637 47.2675" stroke="white" stroke-width="2.625" stroke-linecap="round" stroke-linejoin="round"/>
<path d="M32.0364 23.9751C34.7233 23.9751 36.9014 21.797 36.9014 19.1101C36.9014 16.4233 34.7233 14.2451 32.0364 14.2451C29.3495 14.2451 27.1714 16.4233 27.1714 19.1101C27.1714 21.797 29.3495 23.9751 32.0364 23.9751Z" stroke="white" stroke-width="2.625" stroke-linecap="round" stroke-linejoin="round"/>
<path d="M19.3836 45.3599C22.0704 45.3599 24.2486 43.1817 24.2486 40.4949C24.2486 37.808 22.0704 35.6299 19.3836 35.6299C16.6967 35.6299 14.5186 37.808 14.5186 40.4949C14.5186 43.1817 16.6967 45.3599 19.3836 45.3599Z" stroke="white" stroke-width="2.625" stroke-linecap="round" stroke-linejoin="round"/>
<path d="M44.4788 45.3599C47.1656 45.3599 49.3438 43.1817 49.3438 40.4949C49.3438 37.808 47.1656 35.6299 44.4788 35.6299C41.7919 35.6299 39.6138 37.808 39.6138 40.4949C39.6138 43.1817 41.7919 45.3599 44.4788 45.3599Z" stroke="white" stroke-width="2.625" stroke-linecap="round" stroke-linejoin="round"/>
</svg>
